<?xml version="1.0" encoding="utf-8"?>
<!-- Generator: Adobe Illustrator 21.1.0, SVG Export Plug-In . SVG Version: 6.00 Build 0)  -->
<svg version="1.1" id="Calque_2" xmlns="http://www.w3.org/2000/svg" xmlns:xlink="http://www.w3.org/1999/xlink" x="0px" y="0px"
	 viewBox="0 0 319.9 100.3" style="enable-background:new 0 0 319.9 100.3;" xml:space="preserve">
<style type="text/css">
	.st0{fill:#F1F6DE;}
</style>
<path class="st0" d="M14.9,31.9c0,0,0-1.6,1.4-1.3c0,0,1.2,0,0.9,1.8c-0.3,1.8-0.9,14.4-1.1,17.8s0,10.8,0,10.8s0.4,1.7-1.2,2.2
	c-1.6,0.5-1.1-2.2-1.1-2.4S14.5,40,14.5,40L14.9,31.9z"/>
<path class="st0" d="M18.5,54.2c0,0,2.1-5.8,6.4-5.8s4.8,4.5,3.8,6.2l-8,0.3c0,0-0.3,4,3.1,3.8c3.4-0.2,4.4-3.4,4.4-3.4
	s1.2-1.7,1.6,0.1c0,0,1.1,0.7,0,2c-1.1,1.3-5.8,5.7-9.3,3C16.9,57.8,18.5,54.2,18.5,54.2z M21.8,52.4h4c0,0,1.7-0.2,0.9-1
	S24,49.9,21.8,52.4z"/>
<path class="st0" d="M36.3,51c0,0,0.9,1.2,1.9,0.6c1-0.7-0.3-2.1-0.3-2.1s-0.9-2.9-5.3-1.9s-2.3,7.3-2.3,7.3s1.2,2.9,4.4,2.3
	c2.5-0.5,3.1,2.3,3.1,2.3s2.3,4.4-3.5,8.7c0,0-4.9,1.8-5-1.7c-0.1-2.8,2.5-1.2,2.5-1.2s0.4-2.2-0.7-2.1c0,0,0.2-1.8-1.4-0.7
	c-1.7,1.1-4.3,5.9-0.4,8.1c0,0,3.6,1.3,7.5-1.7c2.4-1.8,4.9-5.8,3-10.8s-5.3-3.3-5.3-3.3s-3.3-1.1-2-4.3
	C32.3,50.6,34.7,48.1,36.3,51z"/>
<path class="st0" d="M68,39.2c0,0-0.2-4.1,3-5.4c0,0,2.6-0.8,2.6,1.9c0,0-1.4,1.8-2-0.4c0,0-4.2,1.8-1.6,5.8c0,0,3.2,2.9,7.2-0.7
	c4.1-3.6,1.5-9.6-3-10.8s-12,1.4-17.6,9.8s-6.6,20.9-3.2,27.2c3.3,6.2,9.3,10.4,18.1,7.2s11.7-10.1,11.7-10.1s-0.8-0.5-1.2,0.2
	c-0.3,0.7-8.2,9-17.1,7.8S57,54.9,57,54.9S58.6,41.5,68,39.2z"/>
<path class="st0" d="M74.7,52.7c0,0,2.8-3.8,6.7-3.2c3.9,0.7,3.9,4.3,3.9,4.3s1.5,4.8-0.9,6.6c-2.4,1.8-7,3-9.7,0.9
	S73.2,54.2,74.7,52.7z M81,59.7c2.7-0.4,2.8-3.5,2.8-3.5s0.1-4.8-3.4-4.5s-5.2,4.5-5.2,4.5C75.1,60.3,78.3,60.1,81,59.7z"/>
<path class="st0" d="M92,51.2c0,0,0.7-2.1-0.7-1.7c-1.3,0.3-1.8,0.5-1.5,1.7c0,0,0.4,0.8-0.1,2.1s-1,2.1-1,2.1l-1.3,5.2
	c0,0-1.4,1.3-0.3,2c1.1,0.6,2.2-0.1,2.3-1.1c0.2-1,1.6-7.2,1.6-7.2s0.2-0.8,2.2-1.4c2-0.6,5-0.7,4.4,2.1c-0.6,2.8-6.2,14.2-6.2,14.2
	s-0.7,2.4,0.7,2.2s2-2.8,2-2.8l5.2-11.6c0,0,1.6-6.2-2.2-6.4C93.3,50.2,92,51.2,92,51.2z"/>
<path class="st0" d="M104.5,45.4l1.9-8.2c0,0,2.2-2.7,2.4,0c0,0-2.2,5.7-2.2,8.2c0,0,3.2-1,3.5,0s0.2,2.2-1.1,2.3
	c-1.2,0.1-3.1,0-3.1,0l-2.2,7.7l-3,9.8l-2.1,7.6c0,0-1.2,4.5,0,5.2c1.2,0.8,3.3-0.8,3.3-0.8s1.8,0,1,1.8s-4.9,1.4-4.9,1.4
	s-2.6-1.1-2.1-4.8c0.6-3.7,2.3-9.8,2.3-9.8l3.8-11l1.8-7c0,0-2.2,0.2-2.8,0.5s-1.8-1.8-0.7-2.4C101.5,45.4,103.6,46.2,104.5,45.4z"
	/>
<path class="st0" d="M109.5,67.3c2,0.1,3.8-3.2,3.8-3.2s2.3-1.2,1.9,0.9c-0.4,2.2-2.8,5.2-6.2,5c-3.4-0.2-5.5-4.1-4.4-9.1
	c1.1-5,3.6-8.3,7.6-7.8s3.8,6.2,3.2,7.8S107,62,107,62C105.2,65,107.5,67.2,109.5,67.3z M107,59.7c0,0,2.3,0.7,4.1,0
	s2.2-1.4,2.2-1.4s0.7-3.6-2.6-3.4C107.5,55.1,107,59.7,107,59.7z"/>
<path class="st0" d="M118,53.6c0,0,1.3-2.3,2-1c0.7,1.3,0,3.4,0,3.4s-1.5,6.1-0.9,7.5c0.7,1.3,2.7,2.1,3.9,0.6c0,0,0.8-4.5,0-8.8
	s-0.5-3.1-0.5-3.1s-0.2-1.2,0.8-1.2s1,1.5,1,1.5l1.1,8.9v4.2c0,0,0.6,0.8,0,1.4c-0.6,0.7-0.6,2.2-1.8,0.7l-0.5-0.6
	c0,0-4,1.6-5.6-1.5c0,0-1.3-1.9,0-6.4L118,53.6z"/>
<path class="st0" d="M131.5,48.7c0,0,2-1.9,3.1,0c0,0-0.7,0.9-1.5,1.1c0,0-0.9,1.9,1.5,1.9c2.4,0,2.5-3.2,2.2-3.9
	c-0.2-0.6-2.2-3.1-5.3-1.6c-3.2,1.4-3.7,8.1-3.7,8.1s-0.2,4.3,1.7,6c1.2,1.1,3.1,2,3.2,5.3c0.2,3.3-0.1,7.2-2.2,8.2
	s-3.9-0.2-3.6-2.1c0,0,1.6-0.7,1.2-1.7c-0.4-1.1-1.1-1.8-2.3-0.9s-1.5,1.7-0.9,3.8c0.6,2.1,1.2,4,4.6,3.7c3.3-0.3,5.2-3.2,5.6-6.5
	c0.3-3.3-0.2-8.3-2.1-10.3c-1.9-2-3.7-3.1-3.3-6.3C130,50.2,131.5,48.7,131.5,48.7z"/>
<path class="st0" d="M140.6,62.1c1.6,0.1,2.9-2.4,2.9-2.4s-0.2-1.7,1-2.4s1.3,1.2,1.3,1.2s-0.4,6.9-5.3,6.3
	c-4.8-0.6-4.3-5.8-4.3-5.8s-0.8-7,4.3-8.9s5.3,3.8,5.3,3.8l-7.6,5.8C138.3,59.7,139,62,140.6,62.1z M138.4,57c0,0,4.6-3,4.5-4.4
	c-0.1-1.6-3.3,0.5-3.3,0.5S137.9,55.5,138.4,57z"/>
<path class="st0" d="M153.3,46.7c0,0-0.5,1.6,1.2,1.5c1.7,0,0.5-3,0.5-3s-1.6-2.4-4.8-1c-3.2,1.5-3,6.7-3,6.7s-0.2,3.2,1.3,5.2
	c1.5,2,4.7,6.3,4.4,9.2c-0.3,2.9-0.8,5.2-3.6,5.6c-2.8,0.4-2.1-1.2-2.1-1.2s2.2-0.3,1.4-2c-0.8-1.7-2-1.7-3.5,0
	c-1.5,1.7-0.1,4.8,2.5,5.5c2.7,0.7,5.6-0.8,6.6-4.4s0.3-6.9-0.5-8.4s-5.2-6-4.7-10.2C149.5,45.9,152.1,45.2,153.3,46.7z"/>
<path class="st0" d="M177.8,52.7l0.5-16.9V31c0,0-0.3-2.6,1.5-2.2c1.8,0.4,0.9,1.8,0.5,2.4c-0.4,0.7-0.5,10.5-0.4,11.3
	c0.1,0.8,0,8.5,0,8.5s0.1,0.8,0.1,1.8c0,0.5,0.3,2.7,0.2,3.2c-0.2,0.6,0,5.2,0,5.2s-0.2,4-0.5,4c-0.3,0.1-1.6-0.3-1.6-0.3
	s-0.6-0.5-1-0.4s-7.5,2.2-9.4-1.6s2.7-7.9,2.7-7.9S173.9,52,177.8,52.7z M177.8,55c-3.3-1.7-8,3-8,3c-1.5,2.7-0.4,4.5,3,5
	c3.3,0.5,5.1-1.5,5.1-1.5v-6V55z"/>
<path class="st0" d="M180.4,59c0,0,0.6-7.4,5.1-8c4.5-0.7,6.3,2.4,6.2,6.1c0,0-0.6,0.5-1.3,0.7c-0.7,0.2-8.2,2-8.2,2s-0.1,3.8,4,3.8
	c4.1,0,6.1-2.7,6.1-2.7s0.8-1.3,1.7-0.7c1,0.7-0.9,2.7-0.9,2.7s-2.5,3.5-5.5,3.4c-3.1-0.2-6.4-0.8-6.9-4.9
	C180.7,61.4,180.2,60.6,180.4,59z M182.8,57c0,0,2.5-0.4,3.9-0.7c1.4-0.3,2.9-1,2.9-1s-0.9-3.2-3.4-2.5
	C183.7,53.6,182.8,55.5,182.8,57z"/>
<path class="st0" d="M202.7,44.2c-1.2,0.1-0.8-1.5-0.8-1.5s2.7-2.6,3.8-3.8s2.6-1.5,2.6-1.5c6.6-0.6,5.7,7,5.7,7
	c-2.1,5.3-6.4,4.1-7,4.2s0.2,4.3,0.2,4.3l1.3,10.6c0,0,2.1,10,2.2,10.6s0,1.4,0,1.4s-0.3,0.9-1.2,1.2c-0.9,0.2-0.8-2.2-0.8-2.2
	s-0.8-5.7-1-6.3s-1-5.4-1-5.4L205,49.2c-0.9,0.4-2.1-0.4-2.4-1.1c-0.3-0.7,1.9-0.8,1.9-0.8l-0.2-4C204.3,43.3,203.8,44.1,202.7,44.2
	z M207,40.7l-0.7,5.7c0,0,0.3,0.5,1.6,0.3c1.3-0.2,4.4-1.2,4-3.6C211.5,40.7,209.1,39.4,207,40.7z"/>
<path class="st0" d="M212.6,52.2c0,0,3.5-3,4.3-3.4s2-1.2,3.4,0s2.4,7.7,2.4,7.7s0.5,4.6,0.2,5.2c-0.2,0.7-2.5,2.8-6.3,3
	c-3.8,0.2-4.5-4.5-3.8-5.4c0.7-0.8,2-3.6,7.4-4c0,0-0.1-5.3-2-4.8c-1.9,0.5-4.6,3.2-4.6,3.2S211.8,54.5,212.6,52.2z M216,58.6
	c0,0-2.9,2.5-0.5,3.5s4.5-1,5.2-1.5c0.6-0.6,0-3,0-3C217.7,57.3,216,58.6,216,58.6z"/>
<path class="st0" d="M231,44.5c0,0-2.8,0.5-1.7,2.2c1.1,1.8,3.6,0.5,4.1-1.5c0.5-2-0.5-3.8-2.2-5c-1.6-1.2-4.5-1.9-6.1,0.3
	c-1.7,2.2-2.2,5.5-1.2,8.8c1.1,3.3,3.3,4.6,5,5.6c1.7,1,5.1,2.9,5.6,7.3s-1.3,5-2.6,5.2c-1.3,0.2-3.2-0.3-3.1-2c0,0,0.9-2.3-0.3-2.5
	c-1.2-0.2-2.2,0.4-2.1,2.3c0.1,1.9,1.5,4.1,4.6,4.6s6.1-2.2,6.1-5.8c0,0-0.6-5.8-2.7-8c-2.8-2.9-1.9-1.9-6-4.3
	c-2.5-1.4-3.5-5.8-3-8.3s2.7-2.7,4.1-1.6S231.8,43.5,231,44.5z"/>
<path class="st0" d="M254.5,56.4c0,0-1.4-2.8-2.5-2.3c-1.1,0.5-1.4,0.8-0.3,2.3c1.1,1.5,1.6,2.6,1.6,2.6l-2.7,1.6
	c0,0-1.7,0.8-1.1,1.7c0.6,0.9,2.3,0.4,2.4,0c0.1-0.4,0.9-1.3,1.1-1.2c0.2,0.2,0,2.2-0.2,2.4c-0.2,0.2,0.2,1.9,1,1.8
	c0.8-0.1,1.3-1.2,1.4-2.2c0.1-1,0.8-0.5,0.8-0.5s0.8,2.8,2,2.2c1.2-0.7,0-3.3,0-3.3s-1.7-2-1-2.4c0.7-0.3,1.5-1,1.5-1
	s1.5-1.7,0.5-2.8c-1-1.1-2,1.1-2,1.1s1.1-3.4-0.8-2.9C254.4,54.1,254.3,55.6,254.5,56.4z"/>
<path class="st0" d="M275.5,57.8c0,0-2-2.8-3.2-1.8c-1.2,1.1,0.8,2.8,0.8,2.8l1.6,1.5c0,0-4.2,2.4-3.5,3.5s2.4,0,2.4,0l1.9-2
	c0,0,0.7,0.1,0.7,0.6s0,3.6,1,2.8s1.2-2.1,1.2-2.1v-0.8c0,0,1.8,1.8,2.5,0.7c0.7-1.1-0.6-2.4-0.6-2.4s-1.9-0.8-1.2-1.7
	s2-1.7,1.9-2.5s-0.4-2.1-1.4-1s-1.6,1.7-1.6,1.7s0.2-4.2-1.1-3.6s-0.9,2.2-0.9,2.2S276.6,57.9,275.5,57.8z"/>
<path class="st0" d="M297.7,57.1l-0.4-2.1c0,0-1.2-2,0.4-2.1c1.6-0.1,1.7,2.1,1.7,2.1v2.1l2.3-2.6c0,0,1.3-1.6,2-0.4
	c0.7,1.2-0.9,1.8-0.9,1.8s-3.1,3.2-2.4,3.6c0,0,0.8-0.7,1.3,0c0.6,0.7,2.5,2,2.5,2s-0.2,2.7-1.4,2.1s-3-2.1-3-2.1l-0.3,2.7
	c0,0-0.7,1.7-1.5,1.1c-0.8-0.5-0.1-2-0.1-2l-0.2-1.8c0,0-1.3,1.3-1.3,1.8s-1.8,1.8-2.2,1.1c-0.4-0.7,0.1-2.7,0.8-2.9
	c0.7-0.2,1.8-1.5,1.8-1.5l-1.8-1.9c0,0-2.1-0.4-1.9-1.6c0.2-1.2,1.4-1.3,2.1-0.9C295.6,56,296.8,57.2,297.7,57.1z"/>
</svg>
