<svg xmlns="http://www.w3.org/2000/svg" viewBox="0 0 31.66 45.59"><defs><style>.cls-1{fill:#f1f6de;}</style></defs><title>Asset 1</title><g id="Layer_2" data-name="Layer 2"><g id="Calque_2" data-name="Calque 2"><path class="cls-1" d="M16.49,9.88s-.25-4.08,3-5.42c0,0,2.58-.75,2.58,1.92,0,0-1.42,1.83-2-.42,0,0-4.25,1.83-1.58,5.83,0,0,3.17,2.92,7.25-.67s1.5-9.58-3-10.83-12,1.42-17.58,9.83S-1.42,31,1.91,37.29,11.24,47.71,20,44.46A20.77,20.77,0,0,0,31.66,34.38s-.83-.5-1.17.17-8.15,9-17.08,7.75-7.92-16.7-7.92-16.7S7.08,12.21,16.49,9.88Z"/></g></g></svg>