<svg xmlns="http://www.w3.org/2000/svg" viewBox="0 0 291.51 52.7"><defs><style>.cls-1{fill:#fff;stroke:#f1f6de;stroke-miterlimit:10;}</style></defs><title>Asset 1</title><g id="Layer_2" data-name="Layer 2"><g id="Calque_2" data-name="Calque 2"><path class="cls-1" d="M1.66,3.67s0-1.58,1.42-1.33c0,0,1.25,0,.92,1.83S3,18.59,2.85,21.92s0,10.83,0,10.83a1.82,1.82,0,0,1-1.19,2.17C.07,35.42.57,32.75.57,32.5s.67-20.75.67-20.75Z"/><path class="cls-1" d="M5.24,26s2.08-5.75,6.42-5.83,4.75,4.5,3.75,6.25l-8,.33s-.3,4,3.14,3.83A5,5,0,0,0,15,27.17s1.17-1.67,1.58.08c0,0,1.08.67,0,2s-5.75,5.67-9.33,3A5.24,5.24,0,0,1,5.24,26Zm3.33-1.83h4s1.67-.25.92-1S10.74,21.67,8.57,24.17Z"/><path class="cls-1" d="M23.07,22.75S24,24,25,23.34s-.33-2.08-.33-2.08-.92-2.92-5.33-1.92-2.27,7.3-2.27,7.3a4,4,0,0,0,4.35,2.28c2.5-.5,3.08,2.33,3.08,2.33s2.29,4.38-3.54,8.67c0,0-4.87,1.84-5-1.67-.13-2.84,2.5-1.17,2.5-1.17s.42-2.21-.67-2.1c0,0,.25-1.81-1.42-.73S12,40.18,15.9,42.34a8.23,8.23,0,0,0,7.5-1.67,9.18,9.18,0,0,0,3-10.75c-1.92-4.92-5.33-3.28-5.33-3.28s-3.25-1.14-2-4.3C19.07,22.34,21.49,19.84,23.07,22.75Z"/><path class="cls-1" d="M54.82,10.92s-.25-4.08,3-5.42c0,0,2.58-.75,2.58,1.92,0,0-1.42,1.83-2-.42,0,0-4.25,1.83-1.58,5.83,0,0,3.17,2.92,7.25-.67s1.5-9.58-3-10.83-12,1.42-17.58,9.83-6.58,20.92-3.25,27.17,9.33,10.42,18.08,7.17A20.77,20.77,0,0,0,70,35.42s-.83-.5-1.17.17-8.15,9-17.08,7.75-7.92-16.7-7.92-16.7S45.41,13.25,54.82,10.92Z"/><path class="cls-1" d="M61.49,24.42s2.75-3.83,6.67-3.17a4.5,4.5,0,0,1,3.92,4.33s1.5,4.75-.92,6.58-7,3-9.67.93S59.95,26,61.49,24.42Zm6.25,7c2.67-.42,2.75-3.5,2.75-3.5s.08-4.83-3.42-4.5-5.17,4.5-5.17,4.5C61.91,32.09,65.07,31.84,67.74,31.42Z"/><path class="cls-1" d="M78.74,22.92s.67-2.07-.67-1.74-1.75.49-1.5,1.74A2.56,2.56,0,0,1,76.51,25a17.13,17.13,0,0,1-1,2.08l-1.33,5.17s-1.42,1.34-.33,2a1.54,1.54,0,0,0,2.34-1.11c.16-1,1.58-7.18,1.58-7.18s.17-.83,2.17-1.42,5-.65,4.42,2.13-6.17,14.2-6.17,14.2-.67,2.42.75,2.25,2-2.83,2-2.83l5.25-11.58s1.58-6.17-2.25-6.42S78.74,22.92,78.74,22.92Z"/><path class="cls-1" d="M91.24,17.17,93.16,9s2.17-2.67,2.42,0c0,0-2.17,5.67-2.17,8.17,0,0,3.25-1,3.5,0s.17,2.25-1.08,2.33-3.08,0-3.08,0l-2.25,7.67-3,9.75L85.41,44.5s-1.17,4.5,0,5.25S88.74,49,88.74,49s1.83,0,1,1.75-4.85,1.42-4.85,1.42-2.65-1.08-2.06-4.75,2.33-9.83,2.33-9.83l3.75-11,1.75-7a10.67,10.67,0,0,0-2.75.5c-.5.33-1.75-1.83-.67-2.42S90.41,18,91.24,17.17Z"/><path class="cls-1" d="M96.32,39.09c2,.08,3.81-3.25,3.81-3.25s2.28-1.25,1.86.92-2.75,5.17-6.17,5-5.5-4.08-4.42-9.08S95,24.34,99,24.84s3.83,6.17,3.25,7.83-8.5,1.08-8.5,1.08A3.37,3.37,0,0,0,96.32,39.09Zm-2.58-7.67a7.63,7.63,0,0,0,4.08,0A4.82,4.82,0,0,0,100.07,30s.67-3.57-2.58-3.37S93.74,31.42,93.74,31.42Z"/><path class="cls-1" d="M104.82,25.34s1.33-2.33,2-1a5.29,5.29,0,0,1,0,3.36s-1.54,6.14-.85,7.47a2.37,2.37,0,0,0,3.94.58,29.7,29.7,0,0,0,0-8.75c-.75-4.25-.5-3.08-.5-3.08s-.25-1.17.83-1.17,1,1.5,1,1.5l1.08,8.94v4.23a1.14,1.14,0,0,1,0,1.42c-.58.67-.58,2.25-1.83.67l-.5-.58s-4,1.58-5.58-1.5c0,0-1.33-1.92,0-6.42Z"/><path class="cls-1" d="M118.32,20.5s2-1.92,3.08,0a3,3,0,0,1-1.54,1.08s-.87,1.92,1.54,1.92,2.5-3.2,2.25-3.85A4,4,0,0,0,118.32,18c-3.17,1.42-3.67,8.08-3.67,8.08s-.17,4.29,1.67,6c1.15,1.09,3.08,2,3.25,5.3s-.08,7.25-2.25,8.17-3.92-.17-3.58-2.08c0,0,1.58-.65,1.17-1.74s-1.15-1.76-2.32-.92-1.51,1.67-.93,3.75,1.25,4,4.58,3.67,5.25-3.15,5.58-6.49-.17-8.33-2.08-10.29-3.67-3.13-3.33-6.3A7.78,7.78,0,0,1,118.32,20.5Z"/><path class="cls-1" d="M127.39,33.84c1.57.08,2.93-2.37,2.93-2.37s-.25-1.72,1-2.35,1.33,1.22,1.33,1.22-.42,6.92-5.26,6.33-4.32-5.83-4.32-5.83-.75-7,4.32-8.92,5.26,3.75,5.26,3.75l-7.59,5.8S125.82,33.75,127.39,33.84Zm-2.24-5.08s4.57-3,4.5-4.42c-.08-1.58-3.29.45-3.29.45S124.66,27.25,125.16,28.75Z"/><path class="cls-1" d="M140.07,18.5A1.12,1.12,0,0,0,141.28,20c1.71,0,.54-3,.54-3a3.63,3.63,0,0,0-4.75-1c-3.17,1.46-3,6.67-3,6.67S133.87,26,135.37,28s4.67,6.29,4.38,9.17-.83,5.21-3.62,5.63-2.05-1.25-2.05-1.25,2.22-.29,1.38-2-2-1.71-3.5,0-.12,4.75,2.54,5.46,5.63-.79,6.58-4.42a12.46,12.46,0,0,0-.5-8.37c-.79-1.46-5.17-6-4.71-10.25S138.87,17,140.07,18.5Z"/><path class="cls-1" d="M164.57,24.5l.5-16.88V2.75S164.74.13,166.53.54s.92,1.75.5,2.42-.5,10.5-.42,11.25,0,8.5,0,8.5a10.19,10.19,0,0,1,.08,1.75,24.11,24.11,0,0,1,.17,3.25c-.17.58,0,5.21,0,5.21s-.17,4-.46,4a7,7,0,0,1-1.62-.26s-.58-.53-1-.37-7.54,2.22-9.42-1.6,2.71-7.95,2.71-7.95S160.66,23.79,164.57,24.5Zm0,2.21c-3.33-1.67-8,3-8,3-1.5,2.67-.37,4.54,3,5a5.89,5.89,0,0,0,5.08-1.48V26.71Z"/><path class="cls-1" d="M167.2,30.75s.63-7.37,5.13-8,6.33,2.38,6.17,6.13a4.5,4.5,0,0,1-1.33.71c-.71.21-8.17,2-8.17,2a3.77,3.77,0,0,0,4,3.83,7.53,7.53,0,0,0,6.08-2.71s.75-1.33,1.71-.67-.92,2.71-.92,2.71-2.46,3.54-5.54,3.38-6.37-.84-6.92-4.86A3.69,3.69,0,0,1,167.2,30.75Zm2.33-2s2.46-.37,3.88-.67a15.66,15.66,0,0,0,2.88-1s-.92-3.25-3.37-2.5A4.33,4.33,0,0,0,169.53,28.75Z"/><path class="cls-1" d="M189.45,16c-1.17.13-.83-1.54-.83-1.54s2.67-2.58,3.83-3.75a5.69,5.69,0,0,1,2.61-1.46c6.6-.58,5.73,7,5.73,7-2.12,5.33-6.42,4.08-7,4.21s.25,4.29.25,4.29l1.33,10.63s2.08,10,2.21,10.63a4.8,4.8,0,0,1,0,1.42,1.89,1.89,0,0,1-1.21,1.17c-.92.25-.83-2.21-.83-2.21s-.79-5.71-1-6.29-1-5.37-1-5.37L191.78,21a2.21,2.21,0,0,1-2.42-1.08c-.33-.67,1.88-.83,1.88-.83L191,15A2,2,0,0,1,189.45,16Zm4.29-3.46L193,18.17s.33.54,1.65.33,4.35-1.21,4-3.62A3.16,3.16,0,0,0,193.74,12.5Z"/><path class="cls-1" d="M199.41,24a49.58,49.58,0,0,1,4.29-3.42c.79-.37,2-1.25,3.38,0s2.42,7.67,2.42,7.67a38.11,38.11,0,0,1,.25,5.25c-.21.67-2.5,2.83-6.33,3s-4.46-4.54-3.79-5.38,2-3.58,7.42-4c0,0-.12-5.33-2-4.79s-4.62,3.25-4.62,3.25S198.53,26.29,199.41,24Zm3.42,6.37s-2.92,2.5-.5,3.46,4.54-1,5.17-1.54,0-3,0-3A7.06,7.06,0,0,0,202.82,30.33Z"/><path class="cls-1" d="M217.74,16.21s-2.75.46-1.67,2.25,3.63.5,4.13-1.46A4.81,4.81,0,0,0,218,12c-1.64-1.21-4.48-1.92-6.14.29a9.71,9.71,0,0,0-1.17,8.83c1.08,3.33,3.29,4.58,5,5.63s5.08,2.88,5.58,7.33-1.33,5-2.62,5.17-3.21-.33-3.12-2c0,0,.92-2.29-.33-2.5s-2.21.38-2.12,2.29a5.09,5.09,0,0,0,4.63,4.63c3.08.5,6.08-2.21,6.08-5.79,0,0-.6-5.8-2.67-8-2.79-2.92-1.87-1.95-6-4.28-2.5-1.43-3.46-5.76-3-8.3s2.71-2.73,4.08-1.6S218.62,15.21,217.74,16.21Z"/><path class="cls-1" d="M241.24,28.2s-1.42-2.78-2.5-2.28-1.42.82-.33,2.28A16.3,16.3,0,0,1,240,30.75l-2.67,1.58s-1.67.75-1.08,1.67,2.29.42,2.44,0,.9-1.33,1.15-1.17a4,4,0,0,1-.25,2.42c-.25.17.17,1.9,1,1.78s1.33-1.2,1.42-2.2.75-.5.75-.5.83,2.85,2,2.17,0-3.32,0-3.32-1.67-2-1-2.35a11.34,11.34,0,0,0,1.52-1s1.48-1.67.48-2.75-2,1.12-2,1.12,1.08-3.37-.75-2.87A2.29,2.29,0,0,0,241.24,28.2Z"/><path class="cls-1" d="M262.32,29.59s-2-2.83-3.25-1.75.83,2.83.83,2.83l1.58,1.5s-4.25,2.42-3.5,3.5,2.42,0,2.42,0l1.92-2s.67.08.67.58,0,3.58,1,2.79a3.55,3.55,0,0,0,1.17-2.12v-.83s1.83,1.75,2.5.67-.58-2.37-.58-2.37-1.92-.79-1.17-1.71,2-1.68,1.95-2.47-.36-2.12-1.36-1l-1.58,1.72s.25-4.16-1.08-3.61-.95,2.22-.95,2.22S263.41,29.67,262.32,29.59Z"/><path class="cls-1" d="M284.49,28.89l-.42-2.14s-1.17-2,.42-2.08,1.67,2.11,1.67,2.11v2.11l2.33-2.62s1.33-1.61,2-.44-.92,1.75-.92,1.75-3.08,3.24-2.42,3.58a.91.91,0,0,1,1.33,0,16.43,16.43,0,0,0,2.5,2s-.17,2.73-1.42,2.15a16.6,16.6,0,0,1-3-2.15l-.33,2.73s-.67,1.66-1.5,1.12-.08-2-.08-2l-.25-1.81s-1.33,1.31-1.33,1.81-1.75,1.75-2.17,1.08.08-2.71.75-2.9,1.75-1.52,1.75-1.52l-1.83-1.92s-2.08-.35-1.92-1.55a1.32,1.32,0,0,1,2.08-.87C282.41,27.75,283.57,28.95,284.49,28.89Z"/></g></g></svg>